<svg xmlns="http://www.w3.org/2000/svg" viewBox="-100 -100 1200 1200" id="logo" hidden>
<defs>
<filter id="glow" filterUnits="userSpaceOnUse"
            x="-50%" y="-50%" width="200%" height="200%">
       <!-- blur the text at different levels-->
      <feGaussianBlur in="SourceGraphic" stdDeviation="3" result="blur5"/>
      <feGaussianBlur in="SourceGraphic" stdDeviation="7" result="blur10"/>
      <!-- <feGaussianBlur in="SourceGraphic" stdDeviation="20" result="blur20"/> -->
      <!-- <feGaussianBlur in="SourceGraphic" stdDeviation="30" result="blur30"/> -->
      <!-- <feGaussianBlur in="SourceGraphic" stdDeviation="50" result="blur50"/> -->
      <!-- merge all the blurs except for the first one -->
      <feMerge result="blur-merged">
        <feMergeNode in="blur5"/>
        <feMergeNode in="blur10"/>
        <!-- <feMergeNode in="blur30"/> -->
        <!-- <feMergeNode in="blur50"/> -->
      </feMerge>
      <!-- recolour the merged blurs red-->
      <feColorMatrix result="red-blur" in="blur-merged" type="matrix"
                     values="1 0 0 0 0
                             0 0.06 0 0 0
                             0 0 0.44 0 0
                             0 0 0 1 0" />
      <feMerge>
        <!-- <feMergeNode in="red-blur"/> -->
        <feMergeNode in="blur-merged"/>
        <feMergeNode in="SourceGraphic"/>
      </feMerge>
    </filter>
</defs>
  <circle r="35" cx="325.92909172029255" cy="205.8096608714253" fill="rgba(152,148,180,253)" />
  <circle r="35" cx="514.968073203851" cy="107.2381254287991" fill="rgba(163,149,178,253)" />
  <circle r="35" cx="469.6958252980725" cy="938.4150567220537" fill="rgba(20,25,6,252)" />
  <circle r="35" cx="397.1661383645392" cy="323.01838260118456" fill="rgba(152,148,180,254)" />
  <circle r="35" cx="935.4819997612836" cy="406.1884375923727" fill="rgba(255,187,117,254)" />
  <circle r="35" cx="820.0160298369345" cy="788.7711528326389" fill="rgba(20,25,6,253)" />
  <circle r="35" cx="564.6592784801277" cy="670.0067573276617" fill="rgba(20,25,6,255)" />
  <circle r="35" cx="248.8081416199445" cy="712.438248540535" fill="rgba(8,2,0,255)" />
  <circle r="35" cx="726.8987679361743" cy="714.9533500962539" fill="rgba(20,25,6,253)" />
  <circle r="35" cx="741.6671687586274" cy="433.5755972581974" fill="rgba(255,187,117,253)" />
  <circle r="35" cx="255.95584975055357" cy="866.3070727517089" fill="rgba(20,25,6,253)" />
  <circle r="35" cx="313.30489256864234" cy="493.51420650645946" fill="rgba(146,130,156,255)" />
  <circle r="35" cx="683.5025935387486" cy="595.6031910215124" fill="rgba(253,191,151,252)" />
  <circle r="35" cx="727.3046618168482" cy="287.7335450652621" fill="rgba(208,148,150,254)" />
  <circle r="35" cx="390.63498732878236" cy="559.3844057193932" fill="rgba(191,139,133,255)" />
  <circle r="35" cx="99.32111325535581" cy="687.5574899752095" fill="rgba(8,2,0,254)" />
  <circle r="35" cx="539.1409086593412" cy="295.1669698207173" fill="rgba(208,148,150,253)" />
  <circle r="35" cx="192.8109423297812" cy="396.6942334737406" fill="rgba(147,133,160,255)" />
  <circle r="32" cx="846.8433687417005" cy="657.7050528677364" fill="rgba(20,25,6,252)" />
  <circle r="32" cx="891.9470117743787" cy="576.1020864132812" fill="rgba(255,174,122,254)" />
  <circle r="32" cx="96.42672084350762" cy="344.57141910642906" fill="rgba(151,148,180,253)" />
  <circle r="32" cx="200.9594733304868" cy="637.8725416821119" fill="rgba(14,13,10,253)" />
  <circle r="32" cx="551.2120231014901" cy="509.21315603349643" fill="rgba(255,187,117,252)" />
  <circle r="32" cx="648.0074465460139" cy="689.0582834224256" fill="rgba(20,25,6,252)" />
  <circle r="32" cx="523.9554532469901" cy="789.5143445899661" fill="rgba(20,25,6,255)" />
  <circle r="32" cx="42.2778321019094" cy="438.2916191287062" fill="rgba(144,130,156,255)" />
  <circle r="32" cx="223.17318125715454" cy="458.1143978822257" fill="rgba(144,130,156,253)" />
  <circle r="32" cx="767.8873384454652" cy="165.94188141166322" fill="rgba(208,148,150,254)" />
  <circle r="32" cx="426.07503633797234" cy="125.3758036943275" fill="rgba(163,149,178,254)" />
  <circle r="32" cx="746.1130607434247" cy="632.7904357765931" fill="rgba(21,19,5,255)" />
  <circle r="32" cx="512.1384068770888" cy="392.18343275431715" fill="rgba(208,148,150,253)" />
  <circle r="32" cx="941.3848932819102" cy="476.9716353950584" fill="rgba(255,187,117,253)" />
  <circle r="32" cx="118.93807730200494" cy="235.4324666183015" fill="rgba(143,147,188,253)" />
  <circle r="32" cx="424.65111064153945" cy="703.4212557775845" fill="rgba(8,2,0,254)" />
  <circle r="32" cx="597.152023793896" cy="401.87306527543086" fill="rgba(255,187,117,254)" />
  <circle r="32" cx="503.2931107121596" cy="557.1674497113783" fill="rgba(255,187,117,251)" />
  <circle r="32" cx="327.63842364114356" cy="816.7912926938203" fill="rgba(20,25,6,252)" />
  <circle r="32" cx="846.3107879249761" cy="348.41223925700126" fill="rgba(255,187,117,253)" />
  <circle r="32" cx="274.708310747452" cy="401.29211021891757" fill="rgba(144,130,156,253)" />
  <circle r="32" cx="616.9309560715074" cy="114.71951093264067" fill="rgba(163,149,178,254)" />
  <circle r="32" cx="443.1032752399616" cy="212.98948688085386" fill="rgba(208,148,150,254)" />
  <circle r="32" cx="150.1267777866949" cy="799.375843897168" fill="rgba(19,24,6,255)" />
  <circle r="32" cx="126.52351924630452" cy="459.86253865938164" fill="rgba(144,130,156,253)" />
  <circle r="32" cx="422.8638657408137" cy="56.00752132707515" fill="rgba(163,149,178,255)" />
  <circle r="32" cx="629.4529947577777" cy="816.0642309803261" fill="rgba(20,25,6,253)" />
  <circle r="32" cx="318.1532160982577" cy="647.3183875646846" fill="rgba(9,6,6,253)" />
  <circle r="32" cx="244.3522598979531" cy="194.37630190991143" fill="rgba(151,148,180,252)" />
  <circle r="32" cx="821.3157226107769" cy="459.41042523049185" fill="rgba(255,187,117,255)" />
  <circle r="32" cx="794.9148975127295" cy="247.73405736638765" fill="rgba(208,148,150,255)" />
  <circle r="32" cx="886.6031477686425" cy="733.4888538522063" fill="rgba(20,25,6,253)" />
  <circle r="32" cx="369.5697283087945" cy="937.3163904078567" fill="rgba(20,25,6,255)" />
  <circle r="32" cx="406.5172972285582" cy="866.3888072929011" fill="rgba(20,25,6,253)" />
  <circle r="32" cx="557.6115612598408" cy="869.7799375668668" fill="rgba(20,25,6,255)" />
  <circle r="32" cx="643.7515802859106" cy="204.26349671101184" fill="rgba(208,148,150,254)" />
  <circle r="32" cx="591.1332563225343" cy="751.9460915088101" fill="rgba(20,25,6,255)" />
  <circle r="32" cx="406.2859506190758" cy="775.333581947017" fill="rgba(20,25,6,253)" />
  <circle r="32" cx="365.53347581725365" cy="420.39001586880613" fill="rgba(206,154,151,253)" />
  <circle r="32" cx="311.23789838120274" cy="906.783156580502" fill="rgba(20,25,6,253)" />
  <circle r="32" cx="610.7523433436329" cy="467.4572091830296" fill="rgba(255,187,117,255)" />
  <circle r="32" cx="669.9024006188349" cy="337.1119399199035" fill="rgba(208,148,150,254)" />
  <circle r="32" cx="165.47494725288416" cy="300.3115598402214" fill="rgba(151,148,180,253)" />
  <circle r="32" cx="694.4275362872921" cy="528.9848326976949" fill="rgba(255,187,117,252)" />
  <circle r="32" cx="236.12842926872412" cy="287.9006513334325" fill="rgba(151,148,180,255)" />
  <circle r="32" cx="354.2827724400292" cy="74.16436268009184" fill="rgba(163,149,178,254)" />
  <circle r="32" cx="333.5467527027367" cy="723.859275933036" fill="rgba(8,2,0,252)" />
  <circle r="32" cx="828.5056486284631" cy="552.3378901646802" fill="rgba(255,187,117,255)" />
  <circle r="32" cx="713.0756065681664" cy="903.2713929188375" fill="rgba(20,25,6,253)" />
  <circle r="32" cx="927.7810838278514" cy="668.8655822453418" fill="rgba(20,25,6,253)" />
  <circle r="32" cx="332.41044203536904" cy="342.8630023714017" fill="rgba(168,151,175,252)" />
  <circle r="32" cx="233.1639774799828" cy="550.2211896879751" fill="rgba(176,134,140,253)" />
  <circle r="32" cx="777.5091636188102" cy="333.58425527063997" fill="rgba(233,164,140,255)" />
  <circle r="32" cx="704.8783882724371" cy="105.55481721500749" fill="rgba(163,149,178,253)" />
  <circle r="32" cx="519.5654715784631" cy="200.43996687884353" fill="rgba(208,148,150,253)" />
  <circle r="32" cx="179.14652670278076" cy="191.81190087927672" fill="rgba(141,143,187,254)" />
  <circle r="32" cx="164.05383620560553" cy="566.8184758388303" fill="rgba(17,15,13,255)" />
  <circle r="32" cx="858.8305116438713" cy="261.80610056662965" fill="rgba(208,148,150,252)" />
  <circle r="32" cx="58.23463327672872" cy="586.5370280679564" fill="rgba(14,13,10,255)" />
  <circle r="32" cx="646.3471981587631" cy="917.2058169873472" fill="rgba(20,25,6,252)" />
  <circle r="32" cx="711.9468701628123" cy="832.8031896415474" fill="rgba(20,25,6,255)" />
  <circle r="32" cx="562.7470652208559" cy="57.38669123056094" fill="rgba(163,149,178,255)" />
  <circle r="32" cx="444.40220738495447" cy="381.29326019202415" fill="rgba(208,148,150,253)" />
  <circle r="32" cx="400.331372052665" cy="489.0156251951262" fill="rgba(206,154,151,254)" />
  <circle r="32" cx="667.4070126550035" cy="410.0044566541297" fill="rgba(255,187,117,254)" />
  <circle r="32" cx="962.4218925972806" cy="549.2459385415704" fill="rgba(255,176,115,255)" />
  <circle r="32" cx="622.8958881212574" cy="290.0841456295767" fill="rgba(208,148,150,254)" />
  <circle r="32" cx="41.594443853881494" cy="522.4912815710545" fill="rgba(143,130,157,251)" />
  <circle r="32" cx="259.7640829695994" cy="791.188875214373" fill="rgba(20,25,6,254)" />
  <circle r="32" cx="597.6655409214599" cy="606.9797149634754" fill="rgba(251,194,146,252)" />
  <circle r="32" cx="580.7820403058386" cy="235.26590585058793" fill="rgba(208,148,150,253)" />
  <circle r="32" cx="490.11959323955443" cy="867.6459596380055" fill="rgba(20,25,6,253)" />
  <circle r="32" cx="487.8084437009367" cy="488.9143075828649" fill="rgba(206,154,151,252)" />
  <circle r="32" cx="511.66060022513943" cy="726.2228826931313" fill="rgba(20,25,6,255)" />
  <circle r="32" cx="251.81571416237853" cy="108.7334541477184" fill="rgba(163,149,178,255)" />
  <circle r="30" cx="534.6802993990955" cy="611.456566642439" fill="rgba(16,14,10,255)" />
  <circle r="30" cx="419.33964145224576" cy="636.2588248932828" fill="rgba(14,13,10,254)" />
  <circle r="30" cx="581.9424865150877" cy="950.0088841854861" fill="rgba(20,25,6,253)" />
  <circle r="30" cx="930.0890416604445" cy="324.7132783367134" fill="rgba(250,166,141,253)" />
  <circle r="30" cx="762.9345861473943" cy="557.8987274740797" fill="rgba(255,187,117,254)" />
  <circle r="30" cx="652.9320763973368" cy="59.10198277143554" fill="rgba(163,149,178,255)" />
  <circle r="30" cx="326.6459115953168" cy="574.3061344091622" fill="rgba(21,17,15,253)" />
  <circle r="30" cx="668.5411586004855" cy="766.4069545000448" fill="rgba(20,25,6,252)" />
  <circle r="30" cx="727.5449934408734" cy="215.01841212345676" fill="rgba(208,148,150,255)" />
  <circle r="25" cx="478.7395466149748" cy="673.5400245251021" fill="rgba(14,14,2,255)" />
  <circle r="25" cx="771.6062209707769" cy="827.0011164410604" fill="rgba(20,25,6,254)" />
  <circle r="25" cx="744.757522363642" cy="782.1353484952728" fill="rgba(20,25,6,255)" />
  <circle r="25" cx="860.9424709941272" cy="411.93780818632933" fill="rgba(255,187,117,254)" />
  <circle r="25" cx="749.4384149684824" cy="503.2271527089786" fill="rgba(255,187,117,253)" />
  <circle r="25" cx="469.73105388513244" cy="608.9388808731653" fill="rgba(15,13,10,255)" />
  <circle r="25" cx="884.9351194805898" cy="517.7519551102366" fill="rgba(255,187,117,253)" />
  <circle r="25" cx="317.30177809098916" cy="282.90155267467435" fill="rgba(151,148,180,255)" />
  <circle r="25" cx="181.6329068725286" cy="724.7424852817995" fill="rgba(8,2,0,252)" />
  <circle r="25" cx="847.0546161461996" cy="194.92123790221086" fill="rgba(208,148,150,254)" />
  <circle r="25" cx="229.31721305521592" cy="346.1949468841435" fill="rgba(151,148,180,254)" />
  <circle r="25" cx="799.9358581714747" cy="703.8381519510516" fill="rgba(20,25,6,255)" />
  <circle r="25" cx="382.35257712289155" cy="246.9564953456749" fill="rgba(151,148,180,252)" />
  <circle r="25" cx="473.6103443363825" cy="276.67819334101796" fill="rgba(208,148,150,252)" />
  <circle r="25" cx="120.25871784379217" cy="527.0767437551251" fill="rgba(148,131,154,254)" />
  <circle r="25" cx="366.22687608141683" cy="615.1285706409469" fill="rgba(14,13,10,255)" />
  <circle r="25" cx="360.8242571180584" cy="141.75400555314974" fill="rgba(163,149,178,251)" />
  <circle r="25" cx="629.569149437728" cy="535.7332610705344" fill="rgba(255,187,117,255)" />
  <circle r="25" cx="463.7502651253941" cy="775.9653119705098" fill="rgba(20,25,6,254)" />
  <circle r="25" cx="118.9106751922353" cy="624.4855019689176" fill="rgba(14,13,10,254)" />
  <circle r="25" cx="267.53598336936136" cy="616.2998011890065" fill="rgba(14,13,10,253)" />
  <circle r="25" cx="532.1097953045604" cy="446.72028489787203" fill="rgba(255,187,117,252)" />
  <circle r="25" cx="371.24630767693503" cy="677.4666147701714" fill="rgba(8,2,0,254)" />
  <circle r="25" cx="466.8595546494888" cy="328.3868259054785" fill="rgba(208,148,150,254)" />
  <circle r="25" cx="809.5078134369415" cy="609.8476908453636" fill="rgba(255,206,143,253)" />
  <circle r="25" cx="560.067494721632" cy="155.78214869062626" fill="rgba(163,149,178,255)" />
  <circle r="21" cx="675.3672661984826" cy="466.4629044154285" fill="rgba(255,187,117,253)" />
  <circle r="21" cx="491.0160471841306" cy="53.365383346798424" fill="rgba(163,149,178,254)" />
  <circle r="21" cx="82.0287245896665" cy="401.67525331368154" fill="rgba(151,147,179,253)" />
  <circle r="21" cx="956.9465731708614" cy="615.5042371764193" fill="rgba(255,224,162,253)" />
  <circle r="21" cx="275.73363436498056" cy="344.6113181351974" fill="rgba(151,148,180,253)" />
  <circle r="21" cx="674.9814126439323" cy="153.53127933887632" fill="rgba(178,149,170,253)" />
  <circle r="21" cx="101.7594871283453" cy="765.2848847922403" fill="rgba(10,13,3,255)" />
  <circle r="21" cx="583.0482353391458" cy="333.13779016242205" fill="rgba(208,148,150,253)" />
  <circle r="21" cx="793.1803678999722" cy="384.9022318874036" fill="rgba(255,187,117,252)" />
  <circle r="21" cx="425.86557384219634" cy="439.2823569073513" fill="rgba(206,154,151,253)" />
  <circle r="21" cx="885.93966047742" cy="468.62309103623653" fill="rgba(255,187,117,253)" />
  <circle r="21" cx="383.51305783296607" cy="182.53985336396104" fill="rgba(163,149,178,253)" />
  <circle r="21" cx="305.18728911158126" cy="148.52022967292726" fill="rgba(163,149,178,253)" />
  <circle r="21" cx="58.13919917876417" cy="646.2181290059124" fill="rgba(13,12,10,253)" />
  <circle r="21" cx="671.6709104470003" cy="254.86116334859472" fill="rgba(208,148,150,252)" />
  <circle r="21" cx="183.25239467397728" cy="851.0759480142658" fill="rgba(20,25,6,253)" />
  <circle r="21" cx="133.34513899526343" cy="404.3753154658526" fill="rgba(144,130,156,252)" />
  <circle r="21" cx="782.1982790163904" cy="878.559959207786" fill="rgba(20,25,6,254)" />
  <circle r="21" cx="168.7304421696169" cy="497.9183105520739" fill="rgba(144,130,156,255)" />
  <circle r="21" cx="78.30641349240659" cy="285.4711329438209" fill="rgba(151,148,180,252)" />
  <circle r="21" cx="698.0433887213359" cy="660.7468917777758" fill="rgba(20,25,6,252)" />
  <circle r="21" cx="208.27664434862675" cy="144.63073412470067" fill="rgba(141,144,186,253)" />
  <circle r="21" cx="724.4167085958859" cy="347.06148320102466" fill="rgba(255,187,117,255)" />
  <circle r="21" cx="163.13196439406232" cy="681.625509017067" fill="rgba(8,2,0,252)" />
  <circle r="21" cx="268.46656052708" cy="244.65553485932213" fill="rgba(151,148,180,254)" />
  <circle r="21" cx="196.95235668206755" cy="243.76809066128484" fill="rgba(151,148,180,254)" />
  <circle r="21" cx="136.1568965068372" cy="735.4981973646308" fill="rgba(8,2,0,255)" />
  <circle r="21" cx="523.8938054196157" cy="919.8352688523663" fill="rgba(20,25,6,253)" />
  <circle r="21" cx="448.33572059725685" cy="541.1716750886413" fill="rgba(211,147,132,255)" />
  <circle r="21" cx="781.1017519876125" cy="114.0949998269219" fill="rgba(178,148,169,253)" />
  <circle r="21" cx="47.749364990859206" cy="372.3764885520915" fill="rgba(151,148,180,253)" />
  <circle r="16" cx="258.90933849406736" cy="495.350998820939" fill="rgba(144,130,156,255)" />
  <circle r="16" cx="653.3977928035983" cy="499.9965796534532" fill="rgba(255,187,117,252)" />
  <circle r="16" cx="465.241899739467" cy="158.92293238173943" fill="rgba(163,149,178,253)" />
  <circle r="16" cx="853.8360056251921" cy="829.7964328932815" fill="rgba(20,25,6,252)" />
  <circle r="16" cx="899.1788054532955" cy="625.3302278993832" fill="rgba(255,222,165,255)" />
  <circle r="16" cx="394.7944134497149" cy="378.3263169338993" fill="rgba(208,148,150,252)" />
  <circle r="16" cx="609.6656879523127" cy="34.091617722884834" fill="rgba(163,149,178,250)" />
  <circle r="16" cx="626.4085391790445" cy="966.571008268264" fill="rgba(20,25,6,255)" />
  <circle r="16" cx="485.4535747079611" cy="438.8574246052612" fill="rgba(206,154,151,255)" />
  <circle r="16" cx="86.73685267012569" cy="493.13409982436474" fill="rgba(144,130,156,253)" />
  <circle r="16" cx="661.398818778977" cy="867.9803595487988" fill="rgba(20,25,6,252)" />
  <circle r="16" cx="816.4853068229442" cy="135.0737244288164" fill="rgba(188,143,165,251)" />
  <circle r="16" cx="359.9669194180839" cy="282.071256218111" fill="rgba(151,148,180,255)" />
  <circle r="16" cx="719.8075169376856" cy="159.98735398719774" fill="rgba(208,148,150,253)" />
  <circle r="16" cx="901.7186260836263" cy="287.6999510867961" fill="rgba(233,163,139,252)" />
  <circle r="16" cx="778.7741666870786" cy="747.1969377387481" fill="rgba(20,25,6,252)" />
  <circle r="16" cx="575.5928060558691" cy="561.6528961117448" fill="rgba(255,187,117,254)" />
  <circle r="16" cx="795.6110209114731" cy="515.9172621938462" fill="rgba(255,187,117,252)" />
  <circle r="16" cx="221.5872921089856" cy="821.8710219604835" fill="rgba(20,25,6,255)" />
  <circle r="16" cx="311.3039203084854" cy="439.36524922976014" fill="rgba(145,130,156,252)" />
  <circle r="16" cx="199.50540320498015" cy="785.8401619603793" fill="rgba(20,25,6,254)" />
  <circle r="16" cx="519.1853938254625" cy="976.9204587673562" fill="rgba(20,25,6,254)" />
  <circle r="16" cx="810.492162403669" cy="293.7698701947542" fill="rgba(208,148,150,254)" />
  <circle r="16" cx="512.814952403645" cy="248.75978358036247" fill="rgba(208,148,150,255)" />
  <circle r="16" cx="594.2472969165132" cy="186.83232103773884" fill="rgba(208,148,150,253)" />
  <circle r="16" cx="613.227389744956" cy="866.5525234832644" fill="rgba(20,25,6,255)" />
  <circle r="16" cx="712.421180924247" cy="384.14785972237735" fill="rgba(255,187,117,255)" />
  <circle r="16" cx="811.5544610824973" cy="850.376411455197" fill="rgba(20,25,6,253)" />
  <circle r="16" cx="874.5462046260321" cy="780.7255521865058" fill="rgba(20,25,6,253)" />
  <circle r="16" cx="299.3421801129508" cy="75.74353702399976" fill="rgba(163,149,178,252)" />
  <circle r="16" cx="469.8863387804497" cy="820.8822786502732" fill="rgba(20,25,6,255)" />
  <circle r="16" cx="286.4004172165831" cy="750.6028617878823" fill="rgba(8,4,1,254)" />
  <circle r="16" cx="420.2889239388034" cy="960.4334469971631" fill="rgba(20,25,6,252)" />
  <circle r="16" cx="567.5578267456242" cy="111.10816622766887" fill="rgba(163,149,178,252)" />
  <circle r="16" cx="161.99454172222312" cy="348.73807761433" fill="rgba(151,148,180,253)" />
  <circle r="16" cx="206.7095437976386" cy="505.6606980881792" fill="rgba(144,130,156,253)" />
  <circle r="16" cx="279.0478163727204" cy="454.7165949582171" fill="rgba(144,130,156,255)" />
  <circle r="16" cx="426.04904195239925" cy="270.25769774668976" fill="rgba(208,148,150,255)" />
  <circle r="16" cx="905.1135892071752" cy="241.0502068956316" fill="rgba(217,158,145,254)" />
  <circle r="16" cx="621.5254441233935" cy="344.77125794093894" fill="rgba(208,148,150,255)" />
  <circle r="16" cx="533.8819926961283" cy="18.073834729129107" fill="rgba(148,145,180,250)" />
  <circle r="16" cx="509.89785963199563" cy="341.29863545032487" fill="rgba(208,148,150,253)" />
  <circle r="16" cx="468.6997473890765" cy="84.53696439804717" fill="rgba(163,149,178,253)" />
  <circle r="16" cx="414.72000336568476" cy="918.5406286434969" fill="rgba(20,25,6,255)" />
  <circle r="16" cx="279.943738255967" cy="536.127075276773" fill="rgba(206,154,151,252)" />
  <circle r="16" cx="577.8084993838272" cy="800.4837065357361" fill="rgba(20,25,6,252)" />
  <circle r="16" cx="458.56519875163633" cy="20.244936266828542" fill="rgba(141,145,186,250)" />
  <circle r="16" cx="267.90900988533974" cy="663.1408945343437" fill="rgba(8,2,0,255)" />
  <circle r="16" cx="710.9339257199272" cy="482.28665031761574" fill="rgba(255,187,117,253)" />
  <circle r="16" cx="643.3780931390901" cy="637.5544111107577" fill="rgba(20,25,6,255)" />
  <circle r="16" cx="753.835517309997" cy="377.53473361806255" fill="rgba(255,187,117,253)" />
  <circle r="16" cx="897.2542033216727" cy="369.06584155372417" fill="rgba(255,187,117,251)" />
  <circle r="16" cx="347.71347614837083" cy="861.7870975019903" fill="rgba(20,25,6,255)" />
  <circle r="16" cx="764.9402032073058" cy="677.9479397788035" fill="rgba(20,25,6,255)" />
  <circle r="16" cx="109.53075130644741" cy="581.795765999214" fill="rgba(14,13,10,252)" />
  <circle r="16" cx="887.9948966265576" cy="213.28919845372818" fill="rgba(215,151,145,250)" />
  <circle r="16" cx="792.7495905899469" cy="659.3813300483782" fill="rgba(20,25,6,252)" />
  <circle r="16" cx="377.66697101632826" cy="827.3249039317581" fill="rgba(20,25,6,254)" />
  <circle r="13" cx="321.1242572165069" cy="117.80661690596519" fill="rgba(163,149,178,255)" />
  <circle r="13" cx="979.0298151036357" cy="445.3555102378165" fill="rgba(255,187,117,254)" />
  <circle r="13" cx="831.8990248649168" cy="734.3108527330392" fill="rgba(20,25,6,255)" />
  <circle r="13" cx="443.51898949709664" cy="473.0790224645189" fill="rgba(206,154,151,254)" />
  <circle r="13" cx="129.3631538226884" cy="189.10741844223764" fill="rgba(136,143,187,250)" />
  <circle r="13" cx="383.49405051227376" cy="735.4081063020637" fill="rgba(8,2,0,255)" />
  <circle r="13" cx="583.1007456739068" cy="830.0755770836381" fill="rgba(20,25,6,252)" />
  <circle r="13" cx="207.47107668501326" cy="683.655561910391" fill="rgba(8,2,0,254)" />
  <circle r="13" cx="804.4011368431766" cy="196.07382491728697" fill="rgba(208,148,150,255)" />
  <circle r="13" cx="599.9889692734592" cy="904.7162345280844" fill="rgba(20,25,6,251)" />
  <circle r="13" cx="428.0756645021845" cy="591.783903056402" fill="rgba(214,155,138,254)" />
  <circle r="13" cx="543.2681336650812" cy="350.75648505904604" fill="rgba(208,148,150,253)" />
  <circle r="13" cx="258.08974046071836" cy="920.8304571115805" fill="rgba(12,17,4,251)" />
  <circle r="13" cx="60.271426528133276" cy="315.4113896676109" fill="rgba(151,148,180,252)" />
  <circle r="13" cx="466.4391227968321" cy="733.2886898481236" fill="rgba(8,2,0,253)" />
  <circle r="13" cx="749.9057550532598" cy="98.83886944583197" fill="rgba(163,149,178,252)" />
  <circle r="13" cx="883.6325570145674" cy="315.742992444208" fill="rgba(242,164,140,254)" />
  <circle r="13" cx="360.5589196392135" cy="773.6688665343829" fill="rgba(19,26,9,252)" />
  <circle r="13" cx="425.02623510142735" cy="821.988145333366" fill="rgba(20,25,6,252)" />
  <circle r="13" cx="29.14261507546753" cy="623.6881766218372" fill="rgba(14,13,10,251)" />
  <circle r="13" cx="838.9305609025309" cy="302.951464541031" fill="rgba(220,155,145,255)" />
  <circle r="13" cx="985.0011652133345" cy="508.69469058887313" fill="rgba(255,187,117,250)" />
  <circle r="13" cx="92.0354053808599" cy="555.0909640939136" fill="rgba(150,128,147,255)" />
  <circle r="13" cx="841.622188860667" cy="505.39251102107175" fill="rgba(255,187,117,253)" />
  <circle r="13" cx="516.1680959332728" cy="655.3686849445461" fill="rgba(20,25,6,253)" />
  <circle r="13" cx="556.8797084573312" cy="718.4420151282632" fill="rgba(20,25,6,255)" />
  <circle r="13" cx="454.8649844247765" cy="984.6730887940571" fill="rgba(19,24,6,254)" />
  <circle r="13" cx="205.76876552070928" cy="887.280606057761" fill="rgba(20,25,6,250)" />
  <circle r="13" cx="331.5528548050519" cy="390.1140572758023" fill="rgba(180,155,168,253)" />
  <circle r="13" cx="923.8832408518773" cy="267.7736310974224" fill="rgba(229,163,141,251)" />
  <circle r="13" cx="306.8142403798625" cy="773.1450523303985" fill="rgba(18,25,8,252)" />
  <circle r="13" cx="964.3048993665327" cy="359.30226399048877" fill="rgba(255,174,127,251)" />
  <circle r="13" cx="283.17462282720817" cy="305.6920316745528" fill="rgba(151,148,180,253)" />
  <circle r="13" cx="70.81885826655746" cy="729.7602781361126" fill="rgba(8,2,0,250)" />
  <circle r="13" cx="561.7793420264463" cy="371.7540492832948" fill="rgba(208,148,150,254)" />
  <circle r="13" cx="351.58435687060137" cy="525.47014722313" fill="rgba(206,154,151,253)" />
  <circle r="13" cx="367.0382399430406" cy="890.1164512755186" fill="rgba(20,25,6,254)" />
  <circle r="13" cx="697.9648116075182" cy="182.30394357213763" fill="rgba(208,148,150,255)" />
  <circle r="13" cx="616.5149221706041" cy="655.3975222362305" fill="rgba(20,25,6,255)" />
  <circle r="13" cx="604.0327214672066" cy="707.2873974384505" fill="rgba(20,25,6,252)" />
  <circle r="13" cx="859.2730280484487" cy="612.0498818517644" fill="rgba(252,198,144,253)" />
  <circle r="13" cx="19.608099707289494" cy="480.0956127708839" fill="rgba(144,130,156,251)" />
  <circle r="13" cx="675.5991829327344" cy="953.38582416855" fill="rgba(20,25,6,253)" />
  <circle r="13" cx="609.5048233572728" cy="65.13136550486362" fill="rgba(163,149,178,254)" />
  <circle r="13" cx="801.0723065358137" cy="418.7640763019228" fill="rgba(255,187,117,255)" />
  <circle r="13" cx="172.48669333238576" cy="448.43340629586004" fill="rgba(144,130,156,255)" />
  <circle r="13" cx="112.84200761012377" cy="284.8833655534851" fill="rgba(151,148,180,254)" />
  <circle r="13" cx="212.39014794328872" cy="593.2930655046763" fill="rgba(14,13,10,253)" />
  <circle r="13" cx="220.82599076682905" cy="757.5697866862388" fill="rgba(13,18,5,255)" />
  <circle r="13" cx="340.99650289119234" cy="251.89584533787564" fill="rgba(151,148,180,255)" />
  <circle r="13" cx="439.72820153830645" cy="298.10680810858054" fill="rgba(208,148,150,253)" />
  <circle r="13" cx="41.77391743563482" cy="335.6765078702188" fill="rgba(151,148,180,251)" />
  <circle r="13" cx="699.4333954537893" cy="56.80086782426559" fill="rgba(163,149,178,250)" />
  <circle r="13" cx="762.8488739526293" cy="908.4836959856716" fill="rgba(20,25,6,254)" />
  <circle r="13" cx="380.90986824706243" cy="33.25907467982366" fill="rgba(163,149,178,250)" />
  <circle r="13" cx="488.4327786488431" cy="13.309372911916576" fill="rgba(143,144,185,250)" />
  <circle r="13" cx="268.94279455011053" cy="153.9096947585884" fill="rgba(145,145,186,253)" />
  <circle r="13" cx="616.6352745587425" cy="167.4311188122753" fill="rgba(166,149,176,254)" />
  <circle r="13" cx="784.155555240076" cy="486.20060044130815" fill="rgba(255,187,117,252)" />
  <circle r="13" cx="677.9450522955758" cy="291.27074663668003" fill="rgba(208,148,150,254)" />
  <circle r="13" cx="743.6243888956693" cy="868.1206135893971" fill="rgba(20,25,6,254)" />
  <circle r="13" cx="843.5405417669585" cy="155.55513042592233" fill="rgba(206,149,150,250)" />
  <circle r="13" cx="273.93934984963937" cy="574.1141795310555" fill="rgba(21,16,15,252)" />
  <circle r="13" cx="847.1006759877961" cy="708.176981437359" fill="rgba(20,25,6,253)" />
  <circle r="13" cx="818.4804372273845" cy="167.60180661333115" fill="rgba(208,148,150,253)" />
  <circle r="13" cx="505.6338178121002" cy="154.78157591662216" fill="rgba(163,149,178,255)" />
  <circle r="13" cx="924.9444749651068" cy="522.321555623128" fill="rgba(255,187,117,255)" />
  <circle r="13" cx="154.17203068994706" cy="644.2010314430798" fill="rgba(14,13,10,252)" />
  <circle r="13" cx="294.57834743454225" cy="695.1948793692212" fill="rgba(8,2,0,255)" />
  <circle r="13" cx="572.5332987123684" cy="441.85416188906356" fill="rgba(255,187,117,255)" />
  <circle r="13" cx="358.7834405175315" cy="469.21258306907293" fill="rgba(206,154,151,253)" />
  <circle r="13" cx="483.5504779505326" cy="236.08536734680692" fill="rgba(208,148,150,253)" />
  <circle r="13" cx="190.59317343940052" cy="338.9119577141238" fill="rgba(151,148,180,255)" />
  <circle r="13" cx="173.7803490454521" cy="144.07180848275812" fill="rgba(136,143,187,250)" />
  <circle r="13" cx="231.6068391458783" cy="239.3177148784005" fill="rgba(151,148,180,251)" />
  <circle r="13" cx="162.14847574126395" cy="254.77183077409205" fill="rgba(151,148,180,253)" />
  <circle r="13" cx="445.7425838158897" cy="891.903068025563" fill="rgba(20,25,6,253)" />
  <circle r="13" cx="932.8496626066071" cy="723.089133907658" fill="rgba(20,25,6,254)" />
  <circle r="13" cx="448.85231009095526" cy="846.0234142868712" fill="rgba(20,25,6,253)" />
  <circle r="13" cx="488.599703512437" cy="983.2447923234488" fill="rgba(20,25,6,255)" />
  <circle r="13" cx="157.31515801712308" cy="612.2944587409113" fill="rgba(14,13,10,254)" />
  <circle r="13" cx="634.5607987041651" cy="375.1152863105609" fill="rgba(255,187,117,253)" />
  <circle r="13" cx="638.9883852502531" cy="575.9505080890166" fill="rgba(255,187,117,255)" />
  <circle r="13" cx="678.9138118929661" cy="723.1305291150658" fill="rgba(20,25,6,253)" />
  <circle r="13" cx="323.92828149591196" cy="950.5577088946447" fill="rgba(20,25,6,252)" />
  <circle r="13" cx="526.8350948458847" cy="835.495172769949" fill="rgba(20,25,6,253)" />
  <circle r="13" cx="48.5884703442457" cy="681.9790074191237" fill="rgba(6,3,3,252)" />
  <circle r="13" cx="303.8752051720581" cy="858.670098716321" fill="rgba(20,25,6,255)" />
  <circle r="13" cx="822.8202899227521" cy="402.6184615990615" fill="rgba(255,187,117,253)" />
  <circle r="13" cx="237.87172324163103" cy="665.0547991813148" fill="rgba(8,2,0,255)" />
  <circle r="13" cx="495.9579827055826" cy="637.0854887298591" fill="rgba(16,15,9,252)" />
  <circle r="13" cx="636.3933921455148" cy="736.4262820265669" fill="rgba(20,25,6,255)" />
  <circle r="13" cx="420.8187334697333" cy="171.1517582840953" fill="rgba(163,149,178,253)" />
  <circle r="13" cx="17.415061524636464" cy="564.9671512885001" fill="rgba(151,133,154,251)" />
  <circle r="13" cx="137.12788110071537" cy="369.6488365091937" fill="rgba(151,148,180,253)" />
  <circle r="13" cx="597.0697860380031" cy="512.578780059295" fill="rgba(255,187,117,255)" />
  <circle r="13" cx="547.2737863218364" cy="569.7406092298902" fill="rgba(255,187,117,254)" />
  <circle r="13" cx="297.43644307284745" cy="105.18930977786792" fill="rgba(163,149,178,252)" />
  <circle r="13" cx="882.6905592254897" cy="687.9398937563287" fill="rgba(20,25,6,255)" />
  <circle r="13" cx="538.5247888218919" cy="954.1173055293517" fill="rgba(20,25,6,252)" />
  <circle r="13" cx="471.59673612678347" cy="129.85837669686202" fill="rgba(163,149,178,252)" />
  <circle r="13" cx="892.8291414708472" cy="433.6145454317188" fill="rgba(255,187,117,254)" />
  <circle r="13" cx="458.85685142079666" cy="426.1406651370445" fill="rgba(206,154,151,253)" />
  <circle r="13" cx="552.5549869868914" cy="981.9744127555264" fill="rgba(20,25,6,255)" />
  <circle r="13" cx="445.3787725138807" cy="506.49104118659676" fill="rgba(209,154,149,252)" />
  <circle r="13" cx="712.3317695393639" cy="761.227779138303" fill="rgba(36,12,12,253)" />
  <circle r="13" cx="79.7976915992896" cy="464.4419272938671" fill="rgba(144,130,156,252)" />
  <circle r="13" cx="179.3909591618643" cy="763.5900988752885" fill="rgba(12,22,4,252)" />
  <circle r="13" cx="192.1877841921963" cy="817.1559901823903" fill="rgba(20,25,6,253)" />
  <circle r="13" cx="557.039405661194" cy="823.3811149929238" fill="rgba(20,25,6,255)" />
  <circle r="13" cx="382.7726474651076" cy="110.11152435901562" fill="rgba(163,149,178,255)" />
  <circle r="13" cx="552.5288145583202" cy="413.7089424640902" fill="rgba(255,187,117,255)" />
  <circle r="13" cx="640.4794355208684" cy="154.84213495044568" fill="rgba(179,150,168,252)" />
  <circle r="13" cx="731.7447364711704" cy="588.9111155375316" fill="rgba(252,182,130,252)" />
  <circle r="13" cx="334.2992277641946" cy="769.7454344439759" fill="rgba(20,25,6,255)" />
  <circle r="13" cx="314.4769549932401" cy="50.098588467177954" fill="rgba(163,149,178,250)" />
  <circle r="13" cx="937.3576963987862" cy="587.1465645527306" fill="rgba(255,183,119,252)" />
  <circle r="13" cx="746.6281059501296" cy="125.78381361491653" fill="rgba(167,149,176,255)" />
  <circle r="13" cx="449.29781354947596" cy="575.9727065010709" fill="rgba(212,150,134,254)" />
  <circle r="13" cx="706.5746746691921" cy="787.5167584291728" fill="rgba(20,25,6,252)" />
</svg>
